<?xml version="1.0" encoding="UTF-8"?> <svg xmlns="http://www.w3.org/2000/svg" version="1.1" viewBox="0 0 167 167" xml:space="preserve"> <style type="text/css"> .st0{fill-rule:evenodd;clip-rule:evenodd;fill:#636467;} .st1{fill-rule:evenodd;clip-rule:evenodd;fill:#00AEEF;} </style> <path class="st0" d="m39.3 94.1c0 32.4 12.6 46 42.3 46s42.2-13.6 42.2-46c0-11.3-1.5-20.3-4.7-27.2l-9.3 6.4c2 5.4 3 12.3 3 20.8 0 26.4-9.1 37.1-31.1 37.1-22.1 0-31.1-10.7-31.1-37.1s9-37.1 31.1-37.1c2.3 0 4.5 0.1 6.5 0.4v-9c-2.1-0.2-4.2-0.2-6.5-0.2-29.8-0.2-42.4 13.4-42.4 45.9"></path> <polygon class="st1" points="101.3 27 127.7 45.1 101.3 63.2"></polygon> </svg> 